<svg xmlns="http://www.w3.org/2000/svg" xml:space="preserve" width="210mm" height="297mm" version="1.1" style="shape-rendering:geometricPrecision; text-rendering:geometricPrecision; image-rendering:optimizeQuality; fill-rule:evenodd; clip-rule:evenodd" viewBox="0 0 2100000 2970000" xmlns:xlink="http://www.w3.org/1999/xlink">
  <defs>
    <style type="text/css">
      <![CDATA[
        .fil0 {fill:#FEFEFE}
        .fil2 {fill:#BDBFC1}
        .fil1 {fill:#00AFEF}
      ]]>
    </style>
  </defs>
  <g id="Layer_1">
    <metadata id="CorelCorpID_0Corel-Layer"/>
    <g id="_2553063251232">
      <polygon class="fil0" points="90238,1631560 1053627,2935698 1984053,1554697 1053988,1145731 335579,1464856 723809,877919 1056099,1068978 1362021,896688 1661496,1068443 1417774,679465 1056459,886992 695233,679465 154763,1543346 335219,1646842 1053627,1327717 1764662,1616652 1053988,2753712"/>
      <path class="fil1" d="M683612 634679l25717 -41425 44669 0 36365 60853 0 41901 -106751 -61329zm30810 -49629l37060 -59697 71234 119203 0 70039 -23861 -13709 0 -48904 -39997 -66932 -44436 0zm42035 -67709l21743 -35023 87591 146577 0 110448 -34584 -19870 0 -77042 -74750 -125090zm26726 -43051l116160 -187109 0 66601 -58067 97171 0 120550 -58093 -97213zm124651 -200786l19890 -32040 0 149668 -20690 34627 -4556 219311 -39 65 0 69716 147632 79668 0 50694 -180034 -103432 4246 0 0 -115044 -24515 -41024 0 -132635 58066 -97169 0 -82405zm28382 -45718l95755 -154242 0 88432 32368 31272 0 191115 -53488 51679 0 -87901c8286,-936 15718,-4581 21315,-9989 6539,-6317 10587,-15052 10587,-24695 0,-9645 -4048,-18379 -10595,-24687 -6551,-6326 -15591,-10237 -25553,-10237 -9962,0 -18994,3908 -25544,10228l-17 17c-6542,6328 -10587,15054 -10587,24679 0,9625 4049,18359 10587,24695 5598,5408 13029,9053 21315,9989l0 125855 -91110 156047 4197 -201995 20770 -34757 0 -165505zm104246 -167919l15005 -24169 53229 86505 0 349984 -54484 170771 -43361 -168387 0 -26926 61979 -59882 0 -197915 -32368 -31272 0 -98709zm76726 76137l22387 36381 0 133836 176524 186008 0 92658 -88520 85523 0 80188 -19631 11276 0 -104608 88957 -85942 0 -21605 -69065 -66726c3634,-5448 5740,-11930 5740,-18876 0,-9625 -4045,-18350 -10587,-24679l-17 -16c-6550,-6321 -15582,-10229 -25544,-10229 -9962,0 -18994,3908 -25544,10229l-17 16c-6542,6329 -10587,15054 -10587,24679 0,9625 4049,18359 10587,24696 6539,6317 15579,10228 25561,10228 9692,0 18496,-3688 24985,-9684l65996 63761 0 14805 -83488 80660 -87737 -176712 0 -335867zm30878 50182l198140 322006 0 97097 -86273 83352 0 43376 -23863 13705 0 -71912 88520 -85523 0 -99223 -176524 -186010 0 -116868zm206632 335807l70740 114963 -157014 90183 0 -35099 86274 -83352 0 -86695zm-155241 244759l-140894 80924 0 -85190c8286,-937 15717,-4581 21315,-9989 6538,-6317 10587,-15053 10587,-24696 0,-9644 -4049,-18378 -10595,-24687 -5607,-5413 -13037,-9059 -21307,-9997l0 -36024 55242 -173147 85652 172512 0 110294zm17531 -321545c-4993,-4825 -11907,-7810 -19556,-7810 -7649,0 -14563,2985 -19556,7810l-17 16c-4994,4824 -8084,11504 -8084,18894 0,7389 3090,14070 8084,18894 5021,4834 11936,7826 19573,7826 7637,0 14553,-2992 19556,-7826 5012,-4824 8101,-11505 8101,-18894 0,-7390 -3089,-14070 -8084,-18894l-17 -16zm-190827 -150652c-4993,-4834 -11908,-7818 -19556,-7818 -7649,0 -14563,2984 -19556,7810l-17 16c-4994,4824 -8084,11504 -8084,18894 0,7388 3090,14070 8084,18893 5020,4834 11936,7827 19573,7827 7636,0 14553,-2993 19556,-7827 5003,-4833 8101,-11516 8101,-18893 0,-7379 -3098,-14060 -8101,-18902zm23910 366225l-45010 -174793 -94131 161222 0 62855 139141 75088 0 -22666c-8286,-937 -15717,-4581 -21315,-9989 -6538,-6337 -10587,-15071 -10587,-24696 0,-9624 4045,-18350 10587,-24679l17 -16c5606,-5410 13029,-9052 21298,-9989l0 -32337zm23802 48120c-4993,-4834 -11909,-7819 -19556,-7819 -7649,0 -14563,2985 -19556,7810l-17 17c-4995,4824 -8084,11503 -8084,18893 0,7389 3089,14070 8084,18894 5020,4834 11936,7827 19573,7827 7636,0 14553,-2993 19556,-7827 5003,-4834 8101,-11517 8101,-18894 0,-7378 -3098,-14060 -8101,-18901z"/>
      <path class="fil1" d="M1056015 1106920l139982 -78837 0 69207 -33884 56704 -106098 -47074zm148474 -83618l157357 -88622 46686 26776 0 82013 -103849 173782

 -71872 -31888 53257 -89121c4838,2323 10293,3629 16062,3629 9983,0 19023,-3912 25553,-10237 6547,-6328 10595,-15062 10595,-24687 0,-9625 -4045,-18351 -10587,-24679l-17 -17c-6550,-6320 -15582,-10228 -25544,-10228 -9962,0 -19002,3911 -25561,10228 -6538,6317 -10587,15051 -10587,24696 0,9643 4049,18378 10587,24695 770,744 1575,1453 2410,2127l-53883 90171 -55268 -24522 34661 -58001 0 -76115zm212534 -56976l84925 48707 -42061 70384 -23539 0 -89865 150382 -34085 -15123 104625 -175080 0 -79270zm92196 52876l33013 18934 0 31346 -16494 15935 -56090 0 39571 -66215zm41504 23804l80966 46438 -23294 38978 -129848 0 -78395 131190 -45938 -20384 87013 -145607 88030 0 21466 -20739 0 -29876zm88237 50607l21059 12078 -28258 47287 -129003 0 -71870 120270 -23020 -10214 75540 -126408 129846 0 25706 -43013zm28329 16247l93160 53431 35533 58303 -113427 0 -47505 -45892 -109241 0 -65968 110392 -21222 -9415 69018 -115497 128982 0 30670 -51322zm133695 119938l47389 77756 -76845 0 -80482 -77756 109938 0zm52389 85960l38315 62868 -223299 0 -182094 -80794 115146 0c970,8005 4742,15185 10339,20594 6539,6317 15580,10228 25561,10228 9983,0 19023,-3911 25553,-10237 6547,-6328 10595,-15062 10595,-24687 0,-9625 -4045,-18351 -10587,-24679l-17 -16c-6550,-6321 -15582,-10229 -25544,-10229 -9962,0 -19002,3912 -25561,10229 -5597,5408 -9369,12588 -10339,20593l-133635 0 -248 -110 63112 -105612 100863 0 136477 131852 85363 0zm43315 71072l77764 127594 -287573 -127594 209809 0zm-239791 -112010c-4993,-4826 -11907,-7810 -19556,-7810 -7647,0 -14563,2984 -19556,7810 -5003,4850 -8101,11531 -8101,18910 0,7377 3098,14060 8101,18894 5004,4833 11921,7826 19556,7826 7637,0 14553,-2993 19556,-7826 5012,-4824 8101,-11506 8101,-18894 0,-7390 -3089,-14070 -8084,-18894l-17 -16zm-335211 -228783c-4993,-4826 -11907,-7810 -19556,-7810 -7647,0 -14563,2984 -19556,7810 -5003,4850 -8100,11531 -8100,18910 0,7377 3097,14060 8100,18894 5004,4833 11921,7826 19556,7826 7638,0 14553,-2993 19556,-7826 5012,-4824 8101,-11506 8101,-18894 0,-7390 -3089,-14070 -8084,-18894l-17 -16z"/>
      <path class="fil2" d="M108050 1554650l-23997 30823 26310 30302 104267 0 -106580 -61125zm9436 69329l245566 282836 128296 -123950 81761 0 94381 -91185 153225 0 176801 -170813 0 -132239 -35834 15919 0 77770 -70498 68111 -160540 0 -170172 164413 -248870 0c-969,8006 -4741,15186 -10339,20594 -6559,6317 -15599,10228 -25561,10228 -9962,0 -18994,-3908 -25544,-10228l-17 -17c-6542,-6328 -10587,-15054 -10587,-24679 0,-9625 4049,-18359 10595,-24687 6530,-6325 15570,-10237 25553,-10237 9981,0 19023,3912 25561,10229 5598,5408 9370,12588 10339,20593l245349 0 170174 -164413 160540 0 65525 -63307 0 -70598 -620042 275429 -104214 -59769 -111448 0zm251045 289146l31819 36649 164267 -158705 -69752 0 -126334 122056zm37298 42959l44551 51313 179812 -173723 305577 0 64082 -61912 -110771 0 -7649 7390 0 -7390 -140380 0c-74,9536 -4109,18165 -10585,24421 -6559,6317 -15599,10229 -25561,10229 -9962,0 -18994,-3908 -25544,-10229l-17 -16c-6542,-6329 -10587,-15054 -10587,-24679 0,-9625 4049,-18359 10595,-24688 6530,-6325 15570,-10236 25553,-10236 9981,0 19023,3911 25561,10228 4689,4530 8097,10304 9651,16766l145444 0 164439 -158871 0 -239373 -43993 19544 0 139411c-60630,58499 -121183,117076 -181773,175615l-153225 0 -265180 256200zm50030 57623l41769 48108 163573 -158032 202002 0 64075 -61906 -293567 0 -177852 171830zm47248 54419l86671 99823 264933 -255962 -189993 0 -161611 156139zm92149 106134l38319 44134 42004 -40582 74040 0 111098 -107335 0 -152689 -265461 256472zm43798 50444l161287 185765 0 -135844 126356 -122074 0 -217757 123303 -119125 0 -80753 -180792 174669 0 164292 -116070 112139 -74040 0 -40044 38688zm169778 195546l30600 35244 186225 103875 0 110612 23857 27478 92090 -147341 0 -174376 -156323 -151030 -94455 91256 0 17368c7525,1243 14259,4733 19426,9726 6539,6317 10588,15053 10588,24696 0,9644 -4049,18378 -10588,24695 -6558,6317 -15598,10229 -25561,10229 -9962,0 -18993,-3908 -25544,-10229l-17 -16c-6541,-6329 -10587,-15054 -10587,-24679 0,-9625 4049,-18359 10596,-24687 6012,-5825 14152,-9602 23195,-10165l0 -20339 98702 -95356 0 -210439 68964 -115403 0 -64096 -114812 110922 0 217755 -126356 122076 0 142224zm46479 53532l161854 

186418 0 -96135 -161854 -90283zm294785 62749l98959 -158331c-66361,-64099 -132749,-128174 -199055,-192322l0 -278141 -60473 101194 0 208280 160569 155131 0 164189zm103482 -165569l112928 -180680 -135809 0 -172206 -166374 0 158572 195087 188482zm118055 -188884l27252 -43604 -143760 0c-52644,-50931 -105394,-101761 -158040,-152693l0 -233722 -38594 -21527 0 281772 175725 169774 137417 0zm32380 -51808l99306 -158887 -159823 -89150 0 -66351 -238330 -132941 0 -297094 4249 0 -45075 -18316 -5849 0 0 353552 243840 136013 0 113915c8286,937 15717,4581 21315,9989 6538,6336 10587,15070 10587,24695 0,9625 -4045,18351 -10587,24679l-17 17c-6550,6320 -15582,10228 -25544,10228 -9962,0 -19002,-3911 -25553,-10236 -6546,-6309 -10595,-15043 -10595,-24688 0,-9643 4049,-18378 10587,-24695 5598,-5408 13029,-9052 21315,-9989l0 -109201 -188262 -105014 0 225587 153068 147887 145368 0zm103677 -165880l26380 -42206 -182083 -101565 0 56919 155703 86852zm30749 -49199l32655 -52246 -217103 -121100 0 -150530 -187517 -104597 0 -77685 -52817 -21461 0 141335 147279 82153 804 -801c6538,-6317 15580,-10229 25561,-10229 9982,0 19022,3912 25561,10229 6538,6337 10587,15071 10587,24696 0,9624 -4045,18350 -10587,24679l-17 16c-6550,6320 -15582,10229 -25544,10229 -9962,0 -19002,-3912 -25553,-10237 -6547,-6309 -10595,-15043 -10595,-24687 0,-6286 1720,-12187 4729,-17283l-142225 -79333 0 139908 424782 236944zm37033 -59252l35245 -56389 -44818 -24999 -136334 0 145907 81388zm39623 -63395l25757 -41208 -278369 -155276 0 141073 52375 29214 153274 0 46963 26197zm30135 -48215l31938 -51100c-83245,-46443 -166470,-92923 -249746,-139315l-12141 -43776 -240316 -97654 0 69538 470265 262307zm36313 -58098l33840 -54145 -290206 -117928 9537 34393 246829 137680zm-363894 300571c-5011,-4834 -11927,-7827 -19564,-7827 -7636,0 -14553,2993 -19556,7827 -5003,4833 -8101,11516 -8101,18893 0,7379 3098,14060 8101,18894 4993,4842 11909,7826 19556,7826 7649,0 14563,-2985 19556,-7810l17 -16c4994,-4824 8084,-11504 8084,-18894 0,-7388 -3090,-14069 -8093,-18893zm-593188 -234208c-5003,-4834 -11920,-7826 -19556,-7826 -7637,0 -14553,2992 -19556,7826 -5012,4824 -8101,11505 -8101,18894 0,7390 3089,14070 8084,18893l17 17c4993,4825 11907,7810 19556,7810 7647,0 14563,-2985 19556,-7810 5003,-4850 8101,-11532 8101,-18910 0,-7377 -3098,-14060 -8101,-18894zm582404 -136533c-5012,-4834 -11927,-7827 -19564,-7827 -7636,0 -14553,2993 -19556,7827 -5003,4834 -8101,11517 -8101,18894 0,7378 3098,14059 8101,18893 4993,4842 11908,7827 19556,7827 7649,0 14563,-2985 19556,-7810l17 -17c4994,-4824 8084,-11503 8084,-18893 0,-7389 -3090,-14070 -8093,-18894zm-402618 732803c-5003,-4834 -11920,-7826 -19556,-7826 -7637,0 -14552,2992 -19555,7826 -5012,4824 -8101,11505 -8101,18894 0,7390 3089,14070 8084,18893l17 17c4993,4825 11906,7810 19555,7810 7648,0 14563,-2985 19556,-7810 5003,-4850 8101,-11532 8101,-18910 0,-7377 -3098,-14060 -8101,-18894zm-608989 -657018c-5003,-4834 -11920,-7827 -19556,-7827 -7637,0 -14553,2993 -19556,7827 -5011,4823 -8101,11505 -8101,18893 0,7390 3090,14070 8084,18894l17 16c4993,4826 11907,7810 19556,7810 7647,0 14563,-2984 19556,-7810 5003,-4850 8101,-11531 8101,-18910 0,-7377 -3098,-14060 -8101,-18893zm754742 31467l0 -107022 -152429 147267 110771 0 41658 -40245z"/>
      <path class="fil2" d="M1056015 1106920l-55201 24689 -235601 -131419 0 -60476 290802 167206zm-64584 28886l-44000 19680 -212431 -118495 -76267 0 75953 -114829 22036 12671 0 70053 234709 130920zm-53383 23877l-81541 36469 -114873 -64076c2250,-4553 3514,-9652 3514,-15034 0,-9645 -4049,-18379 -10596,-24687 -6550,-6326 -15590,-10237 -25552,-10237 -9963,0 -18994,3908 -25544,10228l-17 17c-6542,6328 -10588,15054 -10588,24679 0,9625 4049,18359 10588,24695 6538,6317 15578,10229 25561,10229 9980,0 19022,-3912 25561,-10229 898,-868 1747,-1780 2547,-2735l109997 61356 -58024 25954 -89672 -50020 -63439 0 -42329 -40895 59665 -90202 79493 0 205249 114488zm-158352 70824l-82399 36856 -190943 0 82605 -124886 43492 42019 64757 0 82488 46011zm-100741 45060l-48062 21495 -144185 0 14218 -21495 178029 0zm-66403 29699l-186422 83380 55152 -83380 131270 0zm116003 -207126c-4993,-4834 -11908,-7818 -19555,-7818 -7650,0 -14563,298

4 -19556,7810l-17 16c-4995,4824 -8084,11504 -8084,18894 0,7388 3089,14070 8084,18894 5020,4833 11935,7826 19573,7826 7635,0 14552,-2993 19555,-7826 5004,-4834 8101,-11517 8101,-18894 0,-7379 -3097,-14060 -8101,-18902z"/>
    </g>
  </g>
</svg>